HIERARCHY
ROOT Beta:Hips
{
	OFFSET 0.00 0.00 0.00
	CHANNELS 6 Xposition Yposition Zposition Yrotation Xrotation Zrotation
	JOINT Beta:Spine
	{
		OFFSET	0.0000	9.2263	1.5771
		CHANNELS 3 Xrotation Yrotation Zrotation
		JOINT Beta:Spine1
		{
			OFFSET	0.0000	16.2540	-0.1656
			CHANNELS 3 Xrotation Yrotation Zrotation
			JOINT Beta:Spine2
			{
				OFFSET	0.0000	13.6396	-1.2923
				CHANNELS 3 Xrotation Yrotation Zrotation
				JOINT Beta:Neck
				{
					OFFSET	0.0000	13.8774	-4.3542
					CHANNELS 3 Xrotation Yrotation Zrotation
					JOINT Beta:Neck1
					{
						OFFSET	0.0000	4.3400	0.9269
						CHANNELS 3 Xrotation Yrotation Zrotation
						JOINT Beta:Head
						{
							OFFSET	0.0000	4.0266	0.8585
							CHANNELS 3 Xrotation Yrotation Zrotation
							End Site
							{
								OFFSET 0.0000 23.0297 0.1231
							}
						}
					}
				}
				JOINT Beta:LeftShoulder
				{
					OFFSET	6.1442	10.1870	-3.7932
					CHANNELS 3 Zrotation Xrotation Yrotation
					JOINT Beta:LeftArm
					{
						OFFSET	12.3191	-1.1130	-1.7935
						CHANNELS 3 Zrotation Xrotation Yrotation
						JOINT Beta:LeftForeArm
						{
							OFFSET	27.6870	0.0000	0.0000
							CHANNELS 3 Xrotation Zrotation Yrotation
							JOINT Beta:LeftHand
							{
								OFFSET	27.8738	0.0000	0.0000
								CHANNELS 3 Zrotation Yrotation Xrotation
								JOINT Beta:LeftHandThumb1
								{
									OFFSET	2.3785	-1.0029	2.6209
									CHANNELS 3 Zrotation Xrotation Yrotation
									JOINT Beta:LeftHandThumb2
									{
										OFFSET	3.3624	-1.0029	2.8398
										CHANNELS 3 Zrotation Xrotation Yrotation
										JOINT Beta:LeftHandThumb3
										{
											OFFSET	4.5018	-1.3445	2.1783
											CHANNELS 3 Zrotation Xrotation Yrotation
											End Site
											{
												OFFSET 2.6000 -1.0000 1.0000
											}
										}
									}
								}
								JOINT Beta:LeftHandMiddle1
								{
									OFFSET	10.4639	0.6148	0.4298
									CHANNELS 3 Zrotation Xrotation Yrotation
									JOINT Beta:LeftHandMiddle2
									{
										OFFSET	5.7921	0.0000	0.0000
										CHANNELS 3 Zrotation Xrotation Yrotation
										JOINT Beta:LeftHandMiddle3
										{
											OFFSET	3.7132	0.0000	0.0000
											CHANNELS 3 Zrotation Xrotation Yrotation
											End Site
											{
												OFFSET 2.3000 0.0000 0.0000
											}
										}
									}
								}
								JOINT Beta:LeftHandIndex1
								{
									OFFSET	10.3945	0.6148	2.7055
									CHANNELS 3 Zrotation Xrotation Yrotation
									JOINT Beta:LeftHandIndex2
									{
										OFFSET	5.5493	0.0000	0.0000
										CHANNELS 3 Zrotation Xrotation Yrotation
										JOINT Beta:LeftHandIndex3
										{
											OFFSET	3.3911	0.0000	0.0000
											CHANNELS 3 Zrotation Xrotation Yrotation
											End Site
											{
												OFFSET 2.5000 0.0000 0.0000
											}
										}
									}
								}
								JOINT Beta:LeftHandRing1
								{
									OFFSET	10.3252	0.3211	-1.8755
									CHANNELS 3 Zrotation Xrotation Yrotation
									JOINT Beta:LeftHandRing2
									{
										OFFSET	5.4452	0.0000	0.0000
										CHANNELS 3 Zrotation Xrotation Yrotation
										JOINT Beta:LeftHandRing3
										{
											OFFSET	3.7132	0.0000	0.0000
											CHANNELS 3 Zrotation Xrotation Yrotation
											End Site
											{
												OFFSET 2.0000 0.0000 0.0000
											}
										}
									}
								}
								JOINT Beta:LeftHandPinky1
								{
									OFFSET	10.0130	-0.0783	-3.9671
									CHANNELS 3 Zrotation Xrotation Yrotation
									JOINT Beta:LeftHandPinky2
									{
										OFFSET	3.6763	0.0000	0.0000
										CHANNELS 3 Zrotation Xrotation Yrotation
										JOINT Beta:LeftHandPinky3
										{
											OFFSET	2.8113	0.0000	0.0000
											CHANNELS 3 Zrotation Xrotation Yrotation
											End Site
											{
												OFFSET 2.9000 0.0000 0.0000
											}
										}
									}
								}
							}
						}
					}
				}
				JOINT Beta:RightShoulder
				{
					OFFSET	-6.1402	10.1870	-3.7932
					CHANNELS 3 Zrotation Xrotation Yrotation
					JOINT Beta:RightArm
					{
						OFFSET	-12.3231	-1.1130	-1.7935
						CHANNELS 3 Zrotation Xrotation Yrotation
						JOINT Beta:RightForeArm
						{
							OFFSET	-27.6870	0.0000	0.0000
							CHANNELS 3 Xrotation Zrotation Yrotation
							JOINT Beta:RightHand
							{
								OFFSET	-27.8738	0.0000	0.0000
								CHANNELS 3 Zrotation Yrotation Xrotation
								JOINT Beta:RightHandThumb1
								{
									OFFSET	-2.5178	-0.9367	2.5137
									CHANNELS 3 Zrotation Xrotation Yrotation
									JOINT Beta:RightHandThumb2
									{
										OFFSET	-3.2638	-1.0870	2.9669
										CHANNELS 3 Zrotation Xrotation Yrotation
										JOINT Beta:RightHandThumb3
										{
											OFFSET	-4.4165	-1.3703	2.1350
											CHANNELS 3 Zrotation Xrotation Yrotation
											End Site
											{
												OFFSET -2.6000 -1.0000 1.0000
											}
										}
									}
								}
								JOINT Beta:RightHandIndex1
								{
									OFFSET	-10.4665	0.4896	2.7120
									CHANNELS 3 Zrotation Xrotation Yrotation
									JOINT Beta:RightHandIndex2
									{
										OFFSET	-5.3768	0.0000	0.0000
										CHANNELS 3 Zrotation Xrotation Yrotation
										JOINT Beta:RightHandIndex3
										{
											OFFSET	-3.3855	0.0000	0.0000
											CHANNELS 3 Zrotation Xrotation Yrotation
											End Site
											{
												OFFSET -2.6000 0.0000 0.0000
											}
										}
									}
								}
								JOINT Beta:RightHandMiddle1
								{
									OFFSET	-10.7596	0.4896	0.4278
									CHANNELS 3 Zrotation Xrotation Yrotation
									JOINT Beta:RightHandMiddle2
									{
										OFFSET	-5.6168	0.0000	0.0000
										CHANNELS 3 Zrotation Xrotation Yrotation
										JOINT Beta:RightHandMiddle3
										{
											OFFSET	-3.7364	0.0000	0.0000
											CHANNELS 3 Zrotation Xrotation Yrotation
											End Site
											{
												OFFSET -2.3000 0.0000 0.0000
											}
										}
									}
								}
								JOINT Beta:RightHandRing1
								{
									OFFSET	-10.4702	0.3879	-1.9363
									CHANNELS 3 Zrotation Xrotation Yrotation
									JOINT Beta:RightHandRing2
									{
										OFFSET	-5.4013	0.0000	0.0000
										CHANNELS 3 Zrotation Xrotation Yrotation
										JOINT Beta:RightHandRing3
										{
											OFFSET	-3.3916	0.0000	0.0000
											CHANNELS 3 Zrotation Xrotation Yrotation
											End Site
											{
												OFFSET -2.2000 0.0000 0.0000
											}
										}
									}
								}
								JOINT Beta:RightHandPinky1
								{
									OFFSET	-9.9715	-0.1191	-3.9540
									CHANNELS 3 Zrotation Xrotation Yrotation
									JOINT Beta:RightHandPinky2
									{
										OFFSET	-3.6528	0.0000	0.0000
										CHANNELS 3 Zrotation Xrotation Yrotation
										JOINT Beta:RightHandPinky3
										{
											OFFSET	-2.7820	0.0000	0.0000
											CHANNELS 3 Zrotation Xrotation Yrotation
											End Site
											{
												OFFSET -2.9000 0.0000 0.0000
											}
										}
									}
								}
							}
						}
					}
				}
			}
		}
	}
	JOINT Beta:LeftUpLeg
	{
		OFFSET	9.6338	-3.2733	0.0000
		CHANNELS 3 Xrotation Yrotation Zrotation
		JOINT Beta:LeftLeg
		{
			OFFSET	0.0000	-41.7300	-1.7300
			CHANNELS 3 Xrotation Yrotation Zrotation
			JOINT Beta:LeftFoot
			{
				OFFSET	0.0126	-39.1900	-0.8477
				CHANNELS 3 Xrotation Yrotation Zrotation
				JOINT Beta:LeftToeBase
				{
					OFFSET	-0.1833	-12.1931	8.2823
					CHANNELS 3 Xrotation Yrotation Zrotation
					End Site
					{
						OFFSET 0.0000 0.0000 10.1681
					}
				}
			}
		}
	}
	JOINT Beta:RightUpLeg
	{
		OFFSET	-9.6338	-3.2733	0.0000
		CHANNELS 3 Xrotation Yrotation Zrotation
		JOINT Beta:RightLeg
		{
			OFFSET	0.0000	-41.7300	-1.7300
			CHANNELS 3 Xrotation Yrotation Zrotation
			JOINT Beta:RightFoot
			{
				OFFSET	0.0126	-39.1900	-0.8477
				CHANNELS 3 Xrotation Yrotation Zrotation
				JOINT Beta:RightToeBase
				{
					OFFSET	-0.1833	-12.1931	8.2823
					CHANNELS 3 Xrotation Yrotation Zrotation
					End Site
					{
						OFFSET 0.0032 0.0000 10.1681
					}
				}
			}
		}
	}
}
MOTION
Frames: 4
Frame Time: 0.0333333
4.4377 94.8790 86.1003 3.1114 -0.7910 -0.0010 4.8976 -4.3015 -0.5614 2.0477 -3.1107 0.5569 2.0372 -3.0675 0.6605 0.6551 2.6870 -1.3253 -0.0000 0.0000 -0.0000 -1.6845 6.8560 -1.7627 -15.0136 2.6398 -8.5247 -50.8935 18.0059 -13.2484 0.0000 -0.0000 -27.4172 -13.9969 8.3632 10.2965 4.6366 10.7043 10.5604 3.9587 -1.6735 -0.7764 8.4667 10.0000 -3.7184 -26.2814 -0.0000 -0.5732 -11.9469 0.0000 -0.0000 -13.9468 0.0000 0.0000 -17.4985 0.2741 -6.7679 -15.1134 0.0000 0.0000 -15.1133 0.0000 -0.0000 -28.4847 0.0000 1.7775 -19.4449 0.0000 -0.0000 -21.4420 0.0000 0.0000 -32.0998 -0.0656 0.7486 -17.7411 -0.0000 -0.0000 -17.7411 -0.0000 0.0000 14.6371 1.8854 5.2397 56.2806 20.6601 3.0634 0.0000 0.0000 9.4775 10.3840 7.6452 13.0783 1.8882 18.7988 -12.6126 -5.5525 -1.3313 -7.8787 0.9735 -10.0000 6.0527 13.3891 0.2653 7.6508 23.8775 -0.0000 -0.0000 10.5789 0.0000 -0.0000 16.3030 0.0000 3.5614 35.2327 0.0000 0.0000 20.4166 -0.0000 0.0000 19.2040 0.0000 0.9118 47.7054 0.0000 0.0000 23.3918 0.0000 -0.0000 24.5081 -0.0003 -0.6884 28.7088 0.0000 -0.0000 15.9805 -0.0000 0.0000 -9.4379 6.5638 -2.3674 22.9447 -7.9398 3.1501 -12.1238 -0.1901 2.1317 -6.8229 0.0000 -0.0000 -34.2701 -8.5226 -8.2089 70.1873 0.2957 0.3915 -7.2115 -0.7787 7.2586 -7.6467 -0.0000 0.0000 
4.1725 95.2131 91.1057 3.8192 -0.5405 0.2420 5.0085 -5.2299 -0.7694 2.1010 -4.1406 1.0525 2.0711 -4.0961 1.1819 0.6975 3.2116 -1.0443 -0.0000 0.0000 -0.0000 -1.2442 8.2413 -2.1058 -14.6368 2.6530 -8.7756 -48.1236 19.5510 -16.2989 0.0000 -0.0000 -34.3705 -13.2993 7.7985 9.2651 4.6366 10.7043 10.5604 4.2435 -2.6701 -1.2531 8.2783 9.9997 -3.2294 -25.9621 0.0000 -0.8037 -11.9318 -0.0000 -0.0000 -13.9315 -0.0000 0.0000 -17.0028 0.2194 -7.1446 -15.1048 0.0000 -0.0000 -15.1048 0.0000 0.0000 -27.8571 0.0000 1.7202 -19.5008 0.0000 0.0000 -21.4981 -0.0000 -0.0000 -31.7692 -0.0647 0.7313 -17.7641 -0.0000 -0.0000 -17.7641 0.0000 -0.0000 14.7027 1.8114 4.8783 57.7375 20.0748 -0.3600 -0.0000 0.0000 9.5591 13.7321 6.3158 12.5483 1.8882 18.7988 -12.6126 -5.4911 -1.2073 -7.9463 0.9731 -10.0000 6.0541 13.6460 0.2780 7.6121 23.9255 0.0000 -0.0000 10.6270 0.0000 0.0000 16.3860 0.0000 3.5797 35.2437 -0.0000 -0.0000 20.4275 0.0000 0.0000 19.3777 0.0000 0.9706 47.6586 0.0000 0.0000 23.3449 0.0000 -0.0000 24.5495 -0.0024 -0.5872 28.7157 0.0000 0.0000 15.9859 0.0000 0.0000 -3.1887 7.0090 -3.0988 17.0333 -9.3460 4.5676 -12.4542 -0.1337 0.9693 -6.6241 0.0000 -0.0000 -39.5276 -7.9663 -8.3742 63.7368 -0.7657 0.8791 -11.9389 -1.1695 7.6150 -6.9181 0.0000 0.0000 
3.8796 94.8886 96.1284 4.4704 0.0221 0.6086 5.0184 -5.9243 -1.2639 2.1911 -5.0973 1.7245 2.1185 -5.0448 1.8734 0.5543 3.7423 -1.1603 -0.0000 0.0000 -0.0000 -1.5107 9.2860 -2.2269 -14.1983 2.6620 -9.0480 -44.9405 20.7106 -18.9502 0.0000 -0.0000 -41.6663 -9.9874 7.3994 9.0655 4.6366 10.7043 10.5605 4.1914 -3.3352 -1.7235 8.1198 9.9991 -2.8594 -25.8630 0.0000 -0.9587 -11.8995 -0.0000 -0.0000 -13.8992 0.0000 0.0000 -17.1698 0.2186 -7.1558 -15.0926 0.0000 0.0000 -15.0926 -0.0000 -0.0000 -27.6911 0.0000 1.6601 -19.5432 -0.0000 0.0000 -21.5406 0.0000 -0.0000 -31.4957 -0.0356 0.3826 -17.7331 0.0000 -0.0000 -17.7330 0.0000 0.0000 14.5363 1.6923 4.3939 59.1446 19.5315 -3.5028 0.0000 0.0000 10.2485 16.0716 3.7760 12.3447 1.8882 18.7988 -12.6126 -5.3814 -0.9974 -7.7480 0.9659 -10.0000 6.0798 14.2274 0.2673 7.6419 23.8687 0.0000 -0.0000 10.5701 -0.0000 0.0000 16.6832 0.0000 3.5755 35.2753 0.0000 0.0000 20.4591 0.0000 -0.0000 19.6938 0.0000 1.1009 47.6103 0.0000 -0.0000 23.2963 0.0000 0.0000 24.7933 -0.0062 -0.2843 28.6743 0.0000 0.0000 15.9404 -0.0000 0.0000 1.6340 7.8394 -3.4130 13.1470 -8.0415 5.3450 -14.0449 -3.1340 -0.4618 -6.4812 0.0000 -0.0000 -43.2377 -6.9457 -7.7375 53.5028 -2.0888 0.0327 -11.3796 -1.0762 7.0333 -6.4924 0.0000 0.0000 
3.5076 94.0831 101.4093 5.4715 0.7463 1.7980 4.5391 -6.9080 -3.0403 2.4839 -5.9196 2.6637 2.3208 -5.8444 2.8457 0.3930 4.2799 -1.7150 -0.0000 0.0000 -0.0000 -2.4416 10.0391 -2.0611 -13.8367 2.6998 -9.4278 -41.2698 21.1673 -21.6372 0.0000 -0.0000 -47.8106 -5.6154 6.6906 9.5460 4.6366 10.7044 10.5604 4.0605 -4.0519 -2.4282 7.9102 9.9980 -2.4129 -25.3928 0.0000 -1.0696 -11.8858 0.0000 -0.0000 -13.8855 -0.0000 -0.0000 -16.7761 0.2278 -7.1009 -15.0975 -0.0000 0.0000 -15.0974 0.0000 0.0000 -27.3327 0.0000 1.5993 -19.5837 -0.0000 -0.0000 -21.5813 0.0000 -0.0000 -31.0952 -0.0020 -0.0802 -17.7247 0.0000 0.0000 -17.7247 -0.0000 -0.0000 14.2523 1.5667 3.9167 60.3984 18.7590 -6.0556 -0.0000 -0.0000 10.8179 17.9164 0.8860 11.5729 1.8882 18.7987 -12.6126 -5.2108 -0.4403 -7.1712 0.9572 -10.0000 6.1110 15.0687 0.2612 7.6576 23.9687 -0.0000 -0.0000 10.6701 -0.0000 -0.0000 16.8684 -0.0000 3.5272 35.2824 0.0000 0.0000 20.4663 0.0000 -0.0000 20.1048 -0.0000 1.1863 47.5507 -0.0000 -0.0000 23.2366 0.0000 -0.0000 24.9188 -0.0113 -0.0544 28.4313 0.0000 0.0000 15.6940 -0.0000 -0.0000 6.3198 9.5337 -3.8840 9.5293 -5.9354 5.2715 -15.6747 -8.1536 -2.1663 -6.6094 0.0000 0.0000 -43.6619 -5.2567 -6.7850 38.4530 -3.9574 -2.7211 -8.9676 -0.9127 7.1260 -6.4931 0.0000 0.0000 
